<?xml version="1.0" ?><!DOCTYPE svg  PUBLIC '-//W3C//DTD SVG 1.1//EN'  'http://www.w3.org/Graphics/SVG/1.1/DTD/svg11.dtd'><svg enable-background="new 0 0 140 140" id="Layer_17" version="1.1" viewBox="0 0 140 140" xml:space="preserve" xmlns="http://www.w3.org/2000/svg" xmlns:xlink="http://www.w3.org/1999/xlink"><g><defs><filter filterUnits="userSpaceOnUse" height="97.071106" id="Adobe_OpacityMaskFilter" width="97.0710449" x="42.9289551" y="42.928894"><feColorMatrix type="matrix" values="1 0 0 0 0  0 1 0 0 0  0 0 1 0 0  0 0 0 1 0"/></filter></defs><mask height="97.071106" id="SVGID_1_" maskUnits="userSpaceOnUse" width="97.0710449" x="42.9289551" y="42.928894"><g filter="url(#Adobe_OpacityMaskFilter)"><radialGradient cx="70" cy="70" gradientTransform="matrix(0.7071068 0.7071068 -0.2721382 0.2721382 39.5522003 1.4528493)" gradientUnits="userSpaceOnUse" id="SVGID_2_" r="106.5634918"><stop offset="0.3" style="stop-color:#FFFFFF"/><stop offset="0.85" style="stop-color:#FFFFFF;stop-opacity:0"/></radialGradient><rect fill="url(#SVGID_2_)" height="140" width="140"/></g></mask><linearGradient gradientUnits="userSpaceOnUse" id="SVGID_3_" x1="69.9999847" x2="140.0000153" y1="69.9999542" y2="139.9999847"><stop offset="0" style="stop-color:#000000;stop-opacity:0.4"/><stop offset="0.8" style="stop-color:#000000;stop-opacity:0"/></linearGradient><polygon fill="url(#SVGID_3_)" mask="url(#SVGID_1_)" points="140,85.8580933    97.0710449,42.928894 42.9289551,97.0710449 85.8580933,140 140,140  "/><defs><filter filterUnits="userSpaceOnUse" height="97.071106" id="Adobe_OpacityMaskFilter_1_" width="97.0710449" x="42.9289551" y="42.928894"><feColorMatrix type="matrix" values="1 0 0 0 0  0 1 0 0 0  0 0 1 0 0  0 0 0 1 0"/></filter></defs><mask height="97.071106" id="SVGID_4_" maskUnits="userSpaceOnUse" width="97.0710449" x="42.9289551" y="42.928894"><g filter="url(#Adobe_OpacityMaskFilter_1_)"><radialGradient cx="70" cy="70" gradientTransform="matrix(0.7071068 0.7071068 -0.3889087 0.3889087 47.7261353 -6.7210855)" gradientUnits="userSpaceOnUse" id="SVGID_5_" r="79.5565872"><stop offset="0.3" style="stop-color:#FFFFFF"/><stop offset="0.85" style="stop-color:#FFFFFF;stop-opacity:0"/></radialGradient><rect fill="url(#SVGID_5_)" height="140" width="140"/></g></mask><linearGradient gradientUnits="userSpaceOnUse" id="SVGID_6_" x1="69.9999847" x2="140.0000153" y1="69.9999542" y2="139.9999847"><stop offset="0" style="stop-color:#E62117;stop-opacity:0.6"/><stop offset="0.5" style="stop-color:#E62117;stop-opacity:0"/></linearGradient><polygon fill="url(#SVGID_6_)" mask="url(#SVGID_4_)" points="140,85.8580933    97.0710449,42.928894 42.9289551,97.0710449 85.8580933,140 140,140  "/><path d="M90,100H50c-5.5228462,0-10-4.47715-10-10V50c0-5.5228462,4.4771538-10,10-10h40   c5.52285,0,10,4.4771538,10,10v40C100,95.52285,95.52285,100,90,100z" fill="#E62117"/><g><defs><path d="M90,41c4.9626236,0,9,4.0373802,9,9v40c0,4.9626236-4.0373764,9-9,9H50c-4.9626198,0-9-4.0373764-9-9V50     c0-4.9626198,4.0373802-9,9-9H90 M90,40H50c-5.52285,0-10,4.47715-10,10v40c0,5.52285,4.47715,10,10,10h40     c5.52285,0,10-4.47715,10-10V50C100,44.47715,95.52285,40,90,40L90,40z" id="SVGID_27_"/></defs><clipPath id="SVGID_8_"><use overflow="visible" xlink:href="#SVGID_27_"/></clipPath><linearGradient gradientUnits="userSpaceOnUse" id="SVGID_10_" x1="20" x2="120" y1="20" y2="120"><stop offset="0" style="stop-color:#FFFFFF;stop-opacity:0.8"/><stop offset="0.6" style="stop-color:#FFFFFF;stop-opacity:0"/></linearGradient><rect clip-path="url(#SVGID_8_)" fill="url(#SVGID_10_)" height="100" width="100" x="20" y="20"/></g><g><defs><path d="M90,41c4.9626236,0,9,4.0373802,9,9v40c0,4.9626236-4.0373764,9-9,9H50c-4.9626198,0-9-4.0373764-9-9V50     c0-4.9626198,4.0373802-9,9-9H90 M90,40H50c-5.52285,0-10,4.47715-10,10v40c0,5.52285,4.47715,10,10,10h40     c5.52285,0,10-4.47715,10-10V50C100,44.47715,95.52285,40,90,40L90,40z" id="SVGID_30_"/></defs><clipPath id="SVGID_11_"><use overflow="visible" xlink:href="#SVGID_30_"/></clipPath><linearGradient gradientUnits="userSpaceOnUse" id="SVGID_13_" x1="20" x2="120" y1="20" y2="120"><stop offset="0.4" style="stop-color:#000000;stop-opacity:0"/><stop offset="1" style="stop-color:#000000;stop-opacity:0.2"/></linearGradient><rect clip-path="url(#SVGID_11_)" fill="url(#SVGID_13_)" height="100" width="100" x="20" y="20"/></g><g><defs><path d="M50,99c-4.9624023,0-9-4.0375977-9-9V50c0-4.9624023,4.0375977-9,9-9h40c4.9624023,0,9,4.0375977,9,9v40     c0,4.9624023-4.0375977,9-9,9H50z" id="SVGID_33_"/></defs><clipPath id="SVGID_14_"><use overflow="visible" xlink:href="#SVGID_33_"/></clipPath><radialGradient cx="45" cy="45" gradientUnits="userSpaceOnUse" id="SVGID_16_" r="45"><stop offset="0" style="stop-color:#FFFFFF;stop-opacity:0.2"/><stop offset="1" style="stop-color:#FFFFFF;stop-opacity:0"/></radialGradient><circle clip-path="url(#SVGID_14_)" cx="45" cy="45" fill="url(#SVGID_16_)" r="45"/></g><g><defs><path d="M90,99.1499023H50c-5.0454102,0-9.1499023-4.1044922-9.1499023-9.1499023V50     c0-5.0454102,4.1044922-9.1499023,9.1499023-9.1499023h40c5.0454102,0,9.1499023,4.1044922,9.1499023,9.1499023v40     C99.1499023,95.0454102,95.0454102,99.1499023,90,99.1499023z M50,41.1499023     c-4.8798828,0-8.8500977,3.9702148-8.8500977,8.8500977v40c0,4.8798828,3.9702148,8.8500977,8.8500977,8.8500977h40     c4.8798828,0,8.8500977-3.9702148,8.8500977-8.8500977V50c0-4.8798828-3.9702148-8.8500977-8.8500977-8.8500977H50z" id="SVGID_36_"/></defs><clipPath id="SVGID_17_"><use overflow="visible" xlink:href="#SVGID_36_"/></clipPath><linearGradient gradientUnits="userSpaceOnUse" id="SVGID_19_" x1="20" x2="120" y1="20" y2="120"><stop offset="0.2" style="stop-color:#FFFFFF;stop-opacity:0.8"/><stop offset="0.7" style="stop-color:#FFFFFF;stop-opacity:0"/></linearGradient><rect clip-path="url(#SVGID_17_)" fill="url(#SVGID_19_)" height="100" width="100" x="20" y="20"/></g><path d="M87.9835205,58.0584717L65.333313,62.333313L52.0622559,81.9059448   L70.15625,100H90c5.5228271,0,10-4.4771729,10-10V70.0750122L87.9835205,58.0584717z" opacity="0.12"/><path d="M89.5708771,62.0163765c0,0-0.3916245-2.7497139-1.5873337-3.9579201   c-1.51651-1.5873337-3.2163315-1.595665-3.9954147-1.6873245c-5.582756-0.4041252-13.9652176-0.3541298-13.9652176-0.3541298   s-8.3824577-0.0499954-13.96521,0.3541298c-0.7790833,0.0916595-2.4789085,0.0999908-3.9954147,1.6873245   c-1.1957092,1.2082062-1.5873337,3.9579201-1.5873337,3.9579201S50.0749931,65.2410431,50,68.4698715v3.0246887   c0.0749931,3.2288284,0.4749489,6.4534912,0.4749489,6.4534912s0.3874626,2.7497101,1.5873375,3.9579239   c1.5165062,1.5873337,3.5121346,1.5373383,4.3995399,1.7039871c3.1371727,0.2999649,13.2069588,0.3707886,13.5569191,0.3749619   c0.0041656,0,8.3907928,0.0124969,13.9735489-0.3916321c0.7790833-0.0916519,2.4789047-0.0999832,3.9954147-1.6873245   c1.1957092-1.2082062,1.5873337-3.9579163,1.5873337-3.9579163S89.9750061,74.7192154,90,71.4945526v-3.0246811   C89.9708328,65.2410431,89.5708771,62.0163765,89.5708771,62.0163765z M65.9483414,75.5858002V64.3369675l10.723877,5.6244125   L65.9483414,75.5858002z" fill="#FFFFFF"/><path d="M86.0208359,82.0208359c-3.015625,1.359375-8.9375,1.0625-16.2291718,1.0625   c-13.6249962,0-17.7293777-1.1773605-17.7293777-1.1773605c1.5165062,1.5873337,3.5121346,1.5373383,4.3995399,1.7039871   c3.1371727,0.2999649,13.2069588,0.3707886,13.5569191,0.3749619c0.0041656,0,8.3907928,0.0124969,13.9735489-0.3916321   c0.7790833-0.0916519,2.4789047-0.0999832,3.9954147-1.6873245c1.1957092-1.2082062,1.5873337-3.9579163,1.5873337-3.9579163   S88.1613235,81.0559464,86.0208359,82.0208359z" fill="#E62117" opacity="0.4"/></g></svg>