<?xml version="1.0" ?><!DOCTYPE svg  PUBLIC '-//W3C//DTD SVG 1.1//EN'  'http://www.w3.org/Graphics/SVG/1.1/DTD/svg11.dtd'><svg enable-background="new 0 0 140 140" id="Layer_17" version="1.1" viewBox="0 0 140 140" xml:space="preserve" xmlns="http://www.w3.org/2000/svg" xmlns:xlink="http://www.w3.org/1999/xlink"><g><defs><filter filterUnits="userSpaceOnUse" height="97.071106" id="Adobe_OpacityMaskFilter" width="97.0710449" x="42.9289551" y="42.928894"><feColorMatrix type="matrix" values="1 0 0 0 0  0 1 0 0 0  0 0 1 0 0  0 0 0 1 0"/></filter></defs><mask height="97.071106" id="SVGID_1_" maskUnits="userSpaceOnUse" width="97.0710449" x="42.9289551" y="42.928894"><g filter="url(#Adobe_OpacityMaskFilter)"><radialGradient cx="70" cy="70" gradientTransform="matrix(0.7071068 0.7071068 -0.2721382 0.2721382 39.5522003 1.4528493)" gradientUnits="userSpaceOnUse" id="SVGID_2_" r="106.5634918"><stop offset="0.3" style="stop-color:#FFFFFF"/><stop offset="0.85" style="stop-color:#FFFFFF;stop-opacity:0"/></radialGradient><rect fill="url(#SVGID_2_)" height="140" width="140"/></g></mask><linearGradient gradientUnits="userSpaceOnUse" id="SVGID_3_" x1="69.9999847" x2="140.0000153" y1="69.9999542" y2="139.9999847"><stop offset="0" style="stop-color:#000000;stop-opacity:0.4"/><stop offset="0.8" style="stop-color:#000000;stop-opacity:0"/></linearGradient><polygon fill="url(#SVGID_3_)" mask="url(#SVGID_1_)" points="140,85.8580933    97.0710449,42.928894 42.9289551,97.0710449 85.8580933,140 140,140  "/><defs><filter filterUnits="userSpaceOnUse" height="97.071106" id="Adobe_OpacityMaskFilter_1_" width="97.0710449" x="42.9289551" y="42.928894"><feColorMatrix type="matrix" values="1 0 0 0 0  0 1 0 0 0  0 0 1 0 0  0 0 0 1 0"/></filter></defs><mask height="97.071106" id="SVGID_4_" maskUnits="userSpaceOnUse" width="97.0710449" x="42.9289551" y="42.928894"><g filter="url(#Adobe_OpacityMaskFilter_1_)"><radialGradient cx="70" cy="70" gradientTransform="matrix(0.7071068 0.7071068 -0.3889087 0.3889087 47.7261353 -6.7210855)" gradientUnits="userSpaceOnUse" id="SVGID_5_" r="79.5565872"><stop offset="0.3" style="stop-color:#FFFFFF"/><stop offset="0.85" style="stop-color:#FFFFFF;stop-opacity:0"/></radialGradient><rect fill="url(#SVGID_5_)" height="140" width="140"/></g></mask><linearGradient gradientUnits="userSpaceOnUse" id="SVGID_6_" x1="69.9999847" x2="140.0000153" y1="69.9999542" y2="139.9999847"><stop offset="0" style="stop-color:#1DA1F2;stop-opacity:0.6"/><stop offset="0.5" style="stop-color:#1DA1F2;stop-opacity:0"/></linearGradient><polygon fill="url(#SVGID_6_)" mask="url(#SVGID_4_)" points="140,85.8580933    97.0710449,42.928894 42.9289551,97.0710449 85.8580933,140 140,140  "/><path d="M90,100H50c-5.5228462,0-10-4.47715-10-10V50c0-5.5228462,4.4771538-10,10-10h40   c5.52285,0,10,4.4771538,10,10v40C100,95.52285,95.52285,100,90,100z" fill="#1DA1F2"/><g><defs><path d="M90,41c4.9626236,0,9,4.0373802,9,9v40c0,4.9626236-4.0373764,9-9,9H50c-4.9626198,0-9-4.0373764-9-9V50     c0-4.9626198,4.0373802-9,9-9H90 M90,40H50c-5.52285,0-10,4.47715-10,10v40c0,5.52285,4.47715,10,10,10h40     c5.52285,0,10-4.47715,10-10V50C100,44.47715,95.52285,40,90,40L90,40z" id="SVGID_207_"/></defs><clipPath id="SVGID_8_"><use overflow="visible" xlink:href="#SVGID_207_"/></clipPath><linearGradient gradientUnits="userSpaceOnUse" id="SVGID_10_" x1="20" x2="120" y1="20" y2="120"><stop offset="0" style="stop-color:#FFFFFF;stop-opacity:0.8"/><stop offset="0.6" style="stop-color:#FFFFFF;stop-opacity:0"/></linearGradient><rect clip-path="url(#SVGID_8_)" fill="url(#SVGID_10_)" height="100" width="100" x="20" y="20"/></g><g><defs><path d="M90,41c4.9626236,0,9,4.0373802,9,9v40c0,4.9626236-4.0373764,9-9,9H50c-4.9626198,0-9-4.0373764-9-9V50     c0-4.9626198,4.0373802-9,9-9H90 M90,40H50c-5.52285,0-10,4.47715-10,10v40c0,5.52285,4.47715,10,10,10h40     c5.52285,0,10-4.47715,10-10V50C100,44.47715,95.52285,40,90,40L90,40z" id="SVGID_210_"/></defs><clipPath id="SVGID_11_"><use overflow="visible" xlink:href="#SVGID_210_"/></clipPath><linearGradient gradientUnits="userSpaceOnUse" id="SVGID_13_" x1="20" x2="120" y1="20" y2="120"><stop offset="0.4" style="stop-color:#000000;stop-opacity:0"/><stop offset="1" style="stop-color:#000000;stop-opacity:0.2"/></linearGradient><rect clip-path="url(#SVGID_11_)" fill="url(#SVGID_13_)" height="100" width="100" x="20" y="20"/></g><g><defs><path d="M50,99c-4.9624023,0-9-4.0375977-9-9V50c0-4.9624023,4.0375977-9,9-9h40c4.9624023,0,9,4.0375977,9,9v40     c0,4.9624023-4.0375977,9-9,9H50z" id="SVGID_213_"/></defs><clipPath id="SVGID_14_"><use overflow="visible" xlink:href="#SVGID_213_"/></clipPath><radialGradient cx="45" cy="45" gradientUnits="userSpaceOnUse" id="SVGID_16_" r="45"><stop offset="0" style="stop-color:#FFFFFF;stop-opacity:0.2"/><stop offset="1" style="stop-color:#FFFFFF;stop-opacity:0"/></radialGradient><circle clip-path="url(#SVGID_14_)" cx="45" cy="45" fill="url(#SVGID_16_)" r="45"/></g><g><defs><path d="M90,99.1499023H50c-5.0454102,0-9.1499023-4.1044922-9.1499023-9.1499023V50     c0-5.0454102,4.1044922-9.1499023,9.1499023-9.1499023h40c5.0454102,0,9.1499023,4.1044922,9.1499023,9.1499023v40     C99.1499023,95.0454102,95.0454102,99.1499023,90,99.1499023z M50,41.1499023     c-4.8798828,0-8.8500977,3.9702148-8.8500977,8.8500977v40c0,4.8798828,3.9702148,8.8500977,8.8500977,8.8500977h40     c4.8798828,0,8.8500977-3.9702148,8.8500977-8.8500977V50c0-4.8798828-3.9702148-8.8500977-8.8500977-8.8500977H50z" id="SVGID_216_"/></defs><clipPath id="SVGID_17_"><use overflow="visible" xlink:href="#SVGID_216_"/></clipPath><linearGradient gradientUnits="userSpaceOnUse" id="SVGID_19_" x1="20" x2="120" y1="20" y2="120"><stop offset="0.2" style="stop-color:#FFFFFF;stop-opacity:0.8"/><stop offset="0.7" style="stop-color:#FFFFFF;stop-opacity:0"/></linearGradient><rect clip-path="url(#SVGID_17_)" fill="url(#SVGID_19_)" height="100" width="100" x="20" y="20"/></g><path d="M88.8959961,54.3460693L82.1874924,60.6875L76,79.3125L62.0624962,85   L50,82.569397L67.430603,100H90c5.5228271,0,10-4.4771729,10-10V65.4500732L88.8959961,54.3460693z" opacity="0.12"/><path d="M90,57.5931473c-1.4716187,0.6539154-3.0520096,1.0952759-4.7136765,1.2915726   c1.6941681-1.0152512,2.9957428-2.6231537,3.6096497-4.5386353c-1.586647,0.9389877-3.3420868,1.624157-5.2113037,1.9904976   c-1.4978714-1.5941467-3.6309052-2.5906448-5.9927444-2.5906448c-4.5323868,0-8.2045517,3.6734161-8.2045517,8.2057991   c0,0.642662,0.0712662,1.2703171,0.2113037,1.8704681c-6.8204575-0.3425865-12.8669701-3.6096535-16.9154816-8.5746422   c-0.7051773,1.2128029-1.1102791,2.6219063-1.1102791,4.12603c0,2.8482132,1.4491119,5.3588448,3.649662,6.831707   c-1.3440857-0.0437622-2.6094017-0.4113541-3.7159271-1.0265045c-0.0012512,0.0337601-0.0012512,0.070015-0.0012512,0.1025238   c0,3.9772491,2.8282089,7.2943268,6.5828972,8.0482635c-0.6876717,0.1862946-1.4128532,0.2875748-2.1617928,0.2875748   c-0.5301323,0-1.0427589-0.0512695-1.5428848-0.1462936c1.0427628,3.258316,4.0747681,5.6314087,7.6644173,5.6989288   c-2.8069534,2.2005539-6.3453369,3.5146332-10.1900482,3.5146332c-0.6626663,0-1.3165779-0.038765-1.9579887-0.1150284   c3.630909,2.3255768,7.9444847,3.6846695,12.5793953,3.6846695c15.0937691,0,23.3495827-12.5043793,23.3495827-23.3495903   c0-0.3550873-0.0099945-0.7101784-0.0250015-1.062767C87.5081253,60.685173,88.8984756,59.2410583,90,57.5931473z" fill="#FFFFFF"/><path d="M87,60.03125c-1.1114197,0.8203354-2.1186523,1.3149414-2.1186523,1.3149414   l0.0234375,0.5385742c0.0146484,0.3383789,0.0244141,0.6787109,0.0244141,1.0195313   c0,10.9858398-8.3598633,22.3496094-22.3496094,22.3496094c-2.9438477,0-7.6577148-0.7695313-12.5795898-2.6845093   c3.630909,2.3255768,7.9444847,3.6846695,12.5793953,3.6846695c15.0937691,0,23.3495827-12.5043793,23.3495827-23.3495903   c0-0.3550873-0.0099945-0.7101784-0.0250015-1.062767C87.5081253,60.685173,88.8984756,59.2410583,90,57.5931473   C90,57.5931473,88.3124924,59.0625,87,60.03125z" fill="#1DA1F2" opacity="0.4"/></g></svg>